# xmcd CD database file
#
# Track frame offsets:
#	187
#	16237
#	31387
#	57495
#
# Disc length: 1078 seconds
#
# Revision: 0
# Processed by: cddbd v1.5.1PL0 Copyright (c) Steve Scherf et al.
# Submitted via: CDex 1.51
#
DISCID=2b043404
DTITLE=Scatman John - Scatman
DYEAR=1995
DGENRE=Electronic
TTITLE0=Scatman (Basic Radio)
TTITLE1=Scatman (New Basic Radio)
TTITLE2=Scatman (Third Level)
TTITLE3=Scatman (Extended Radio version)
EXTD=YEAR: 1995
EXTT0=
EXTT1=
EXTT2=
EXTT3=
PLAYORDER=
